<mxfile host="Electron" agent="Mozilla/5.0 (Windows NT 10.0; Win64; x64) AppleWebKit/537.36 (KHTML, like Gecko) draw.io/26.1.1 Chrome/132.0.6834.210 Electron/34.3.3 Safari/537.36" version="26.1.1">
  <diagram name="Страница — 1" id="QcvKfxxor-7EZcdFxB8O">
    <mxGraphModel dx="1434" dy="836" grid="1" gridSize="10" guides="1" tooltips="1" connect="1" arrows="1" fold="1" page="1" pageScale="1" pageWidth="827" pageHeight="1169" math="0" shadow="0">
      <root>
        <mxCell id="0" />
        <mxCell id="1" parent="0" />
        <mxCell id="09--Z6xmC3GIlV3XUSCr-11" style="edgeStyle=orthogonalEdgeStyle;rounded=0;orthogonalLoop=1;jettySize=auto;html=1;exitX=0.5;exitY=0.5;exitDx=0;exitDy=0;exitPerimeter=0;entryX=0;entryY=0.5;entryDx=0;entryDy=0;" parent="1" source="TiFn6X6zfQXqkcynRU8D-4" target="09--Z6xmC3GIlV3XUSCr-1" edge="1">
          <mxGeometry relative="1" as="geometry" />
        </mxCell>
        <mxCell id="09--Z6xmC3GIlV3XUSCr-13" style="edgeStyle=orthogonalEdgeStyle;rounded=0;orthogonalLoop=1;jettySize=auto;html=1;exitX=0.5;exitY=0.5;exitDx=0;exitDy=0;exitPerimeter=0;entryX=1;entryY=0.5;entryDx=0;entryDy=0;" parent="1" source="TiFn6X6zfQXqkcynRU8D-4" target="09--Z6xmC3GIlV3XUSCr-3" edge="1">
          <mxGeometry relative="1" as="geometry" />
        </mxCell>
        <mxCell id="09--Z6xmC3GIlV3XUSCr-14" style="edgeStyle=orthogonalEdgeStyle;rounded=0;orthogonalLoop=1;jettySize=auto;html=1;exitX=0.5;exitY=0.5;exitDx=0;exitDy=0;exitPerimeter=0;entryX=0;entryY=0.5;entryDx=0;entryDy=0;" parent="1" source="TiFn6X6zfQXqkcynRU8D-4" target="09--Z6xmC3GIlV3XUSCr-6" edge="1">
          <mxGeometry relative="1" as="geometry" />
        </mxCell>
        <mxCell id="09--Z6xmC3GIlV3XUSCr-17" style="edgeStyle=orthogonalEdgeStyle;rounded=0;orthogonalLoop=1;jettySize=auto;html=1;exitX=0.5;exitY=0.5;exitDx=0;exitDy=0;exitPerimeter=0;entryX=0;entryY=0.5;entryDx=0;entryDy=0;" parent="1" source="TiFn6X6zfQXqkcynRU8D-4" target="09--Z6xmC3GIlV3XUSCr-4" edge="1">
          <mxGeometry relative="1" as="geometry" />
        </mxCell>
        <mxCell id="TiFn6X6zfQXqkcynRU8D-4" value="Обычный пользователь" style="shape=umlActor;verticalLabelPosition=bottom;verticalAlign=top;html=1;outlineConnect=0;" parent="1" vertex="1">
          <mxGeometry x="383" y="40.00000000000006" width="30" height="60" as="geometry" />
        </mxCell>
        <mxCell id="09--Z6xmC3GIlV3XUSCr-15" style="edgeStyle=orthogonalEdgeStyle;rounded=0;orthogonalLoop=1;jettySize=auto;html=1;exitX=0.5;exitY=0.5;exitDx=0;exitDy=0;exitPerimeter=0;entryX=0;entryY=0.5;entryDx=0;entryDy=0;" parent="1" source="xA3sZQh8pZ7lUp5FgRjZ-2" target="09--Z6xmC3GIlV3XUSCr-6" edge="1">
          <mxGeometry relative="1" as="geometry" />
        </mxCell>
        <mxCell id="09--Z6xmC3GIlV3XUSCr-16" style="edgeStyle=orthogonalEdgeStyle;rounded=0;orthogonalLoop=1;jettySize=auto;html=1;exitX=0.5;exitY=0.5;exitDx=0;exitDy=0;exitPerimeter=0;entryX=1;entryY=0.5;entryDx=0;entryDy=0;" parent="1" source="xA3sZQh8pZ7lUp5FgRjZ-2" target="09--Z6xmC3GIlV3XUSCr-5" edge="1">
          <mxGeometry relative="1" as="geometry" />
        </mxCell>
        <mxCell id="09--Z6xmC3GIlV3XUSCr-18" style="edgeStyle=orthogonalEdgeStyle;rounded=0;orthogonalLoop=1;jettySize=auto;html=1;exitX=0.5;exitY=0.5;exitDx=0;exitDy=0;exitPerimeter=0;" parent="1" source="xA3sZQh8pZ7lUp5FgRjZ-2" edge="1">
          <mxGeometry relative="1" as="geometry">
            <mxPoint x="620" y="240" as="targetPoint" />
            <Array as="points">
              <mxPoint x="398" y="240" />
            </Array>
          </mxGeometry>
        </mxCell>
        <mxCell id="xA3sZQh8pZ7lUp5FgRjZ-2" value="Тренер" style="shape=umlActor;verticalLabelPosition=bottom;verticalAlign=top;html=1;outlineConnect=0;" parent="1" vertex="1">
          <mxGeometry x="383" y="320" width="30" height="60" as="geometry" />
        </mxCell>
        <mxCell id="09--Z6xmC3GIlV3XUSCr-19" style="edgeStyle=orthogonalEdgeStyle;rounded=0;orthogonalLoop=1;jettySize=auto;html=1;exitX=0.5;exitY=0.5;exitDx=0;exitDy=0;exitPerimeter=0;entryX=1;entryY=0.5;entryDx=0;entryDy=0;" parent="1" source="xA3sZQh8pZ7lUp5FgRjZ-5" target="09--Z6xmC3GIlV3XUSCr-7" edge="1">
          <mxGeometry relative="1" as="geometry" />
        </mxCell>
        <mxCell id="09--Z6xmC3GIlV3XUSCr-20" style="edgeStyle=orthogonalEdgeStyle;rounded=0;orthogonalLoop=1;jettySize=auto;html=1;exitX=0.5;exitY=0.5;exitDx=0;exitDy=0;exitPerimeter=0;entryX=0;entryY=0.5;entryDx=0;entryDy=0;" parent="1" source="xA3sZQh8pZ7lUp5FgRjZ-5" target="09--Z6xmC3GIlV3XUSCr-8" edge="1">
          <mxGeometry relative="1" as="geometry" />
        </mxCell>
        <mxCell id="09--Z6xmC3GIlV3XUSCr-23" style="edgeStyle=orthogonalEdgeStyle;rounded=0;orthogonalLoop=1;jettySize=auto;html=1;exitX=0.5;exitY=0.5;exitDx=0;exitDy=0;exitPerimeter=0;entryX=1;entryY=0.5;entryDx=0;entryDy=0;" parent="1" source="xA3sZQh8pZ7lUp5FgRjZ-5" target="09--Z6xmC3GIlV3XUSCr-5" edge="1">
          <mxGeometry relative="1" as="geometry" />
        </mxCell>
        <mxCell id="xA3sZQh8pZ7lUp5FgRjZ-5" value="Администратор" style="shape=umlActor;verticalLabelPosition=bottom;verticalAlign=top;html=1;outlineConnect=0;" parent="1" vertex="1">
          <mxGeometry x="383" y="680" width="30" height="60" as="geometry" />
        </mxCell>
        <mxCell id="xA3sZQh8pZ7lUp5FgRjZ-6" value="Главный администратор" style="shape=umlActor;verticalLabelPosition=bottom;verticalAlign=top;html=1;outlineConnect=0;" parent="1" vertex="1">
          <mxGeometry x="383" y="1050" width="30" height="60" as="geometry" />
        </mxCell>
        <mxCell id="09--Z6xmC3GIlV3XUSCr-1" value="Вход" style="ellipse;whiteSpace=wrap;html=1;" parent="1" vertex="1">
          <mxGeometry x="620" y="35" width="140" height="70" as="geometry" />
        </mxCell>
        <mxCell id="09--Z6xmC3GIlV3XUSCr-2" value="Регистрация" style="ellipse;whiteSpace=wrap;html=1;" parent="1" vertex="1">
          <mxGeometry x="80" y="40" width="140" height="70" as="geometry" />
        </mxCell>
        <mxCell id="09--Z6xmC3GIlV3XUSCr-3" value="Добавить тренировку" style="ellipse;whiteSpace=wrap;html=1;" parent="1" vertex="1">
          <mxGeometry x="80" y="210" width="140" height="70" as="geometry" />
        </mxCell>
        <mxCell id="09--Z6xmC3GIlV3XUSCr-4" value="Посмотреть прогресс" style="ellipse;whiteSpace=wrap;html=1;" parent="1" vertex="1">
          <mxGeometry x="620" y="210" width="140" height="70" as="geometry" />
        </mxCell>
        <mxCell id="09--Z6xmC3GIlV3XUSCr-5" value="Посмотреть данные пользователя" style="ellipse;whiteSpace=wrap;html=1;" parent="1" vertex="1">
          <mxGeometry x="80" y="340" width="140" height="70" as="geometry" />
        </mxCell>
        <mxCell id="09--Z6xmC3GIlV3XUSCr-6" value="Создать план тренировок" style="ellipse;whiteSpace=wrap;html=1;" parent="1" vertex="1">
          <mxGeometry x="620" y="330" width="140" height="70" as="geometry" />
        </mxCell>
        <mxCell id="09--Z6xmC3GIlV3XUSCr-7" value="Управление данными пользователей" style="ellipse;whiteSpace=wrap;html=1;" parent="1" vertex="1">
          <mxGeometry x="80" y="480" width="140" height="70" as="geometry" />
        </mxCell>
        <mxCell id="09--Z6xmC3GIlV3XUSCr-8" value="Назначить роли" style="ellipse;whiteSpace=wrap;html=1;" parent="1" vertex="1">
          <mxGeometry x="630" y="480" width="140" height="70" as="geometry" />
        </mxCell>
        <mxCell id="09--Z6xmC3GIlV3XUSCr-12" style="edgeStyle=orthogonalEdgeStyle;rounded=0;orthogonalLoop=1;jettySize=auto;html=1;exitX=0.5;exitY=0.5;exitDx=0;exitDy=0;exitPerimeter=0;entryX=0.993;entryY=0.414;entryDx=0;entryDy=0;entryPerimeter=0;" parent="1" source="TiFn6X6zfQXqkcynRU8D-4" target="09--Z6xmC3GIlV3XUSCr-2" edge="1">
          <mxGeometry relative="1" as="geometry" />
        </mxCell>
      </root>
    </mxGraphModel>
  </diagram>
</mxfile>
